<svg xmlns="http://www.w3.org/2000/svg" width="61" height="62" viewBox="0 0 61 62" fill="none">
<path d="M52.3985 14.4966V3.54739C52.3985 2.85598 52.1238 2.19289 51.6349 1.70399C51.146 1.21509 50.4829 0.94043 49.7915 0.94043H11.2085C10.5171 0.94043 9.85402 1.21509 9.36512 1.70399C8.87622 2.19289 8.60156 2.85598 8.60156 3.54739V14.4966C6.34229 14.6297 4.21953 15.622 2.66842 17.2701C1.11731 18.9181 0.255372 21.0971 0.259291 23.3603V44.216C0.26205 46.5659 1.19678 48.8188 2.85845 50.4805C4.52011 52.1421 6.77301 53.0769 9.12295 53.0796H26.3289V56.208H18.508C18.3697 56.208 18.2371 56.2629 18.1393 56.3607C18.0415 56.4585 17.9866 56.5911 17.9866 56.7294V60.9005C17.9866 61.0388 18.0415 61.1714 18.1393 61.2692C18.2371 61.367 18.3697 61.4219 18.508 61.4219H43.5348C43.6731 61.4219 43.8057 61.367 43.9035 61.2692C44.0013 61.1714 44.0562 61.0388 44.0562 60.9005V56.7294C44.0562 56.5911 44.0013 56.4585 43.9035 56.3607C43.8057 56.2629 43.6731 56.208 43.5348 56.208H34.6712V53.0796H51.8771C54.227 53.0769 56.4799 52.1421 58.1416 50.4805C59.8033 48.8188 60.738 46.5659 60.7407 44.216V23.3603C60.7447 21.0971 59.8827 18.9181 58.3316 17.2701C56.7805 15.622 54.6577 14.6297 52.3985 14.4966ZM9.64434 15.018V11.3683H51.3557V39.002C51.3557 39.4169 51.1909 39.8147 50.8976 40.1081C50.6042 40.4014 50.2064 40.5662 49.7915 40.5662H11.2085C10.7937 40.5662 10.3958 40.4014 10.1025 40.1081C9.80914 39.8147 9.64434 39.4169 9.64434 39.002V15.018ZM9.64434 3.54739C9.64434 3.13254 9.80914 2.73469 10.1025 2.44135C10.3958 2.14801 10.7937 1.98321 11.2085 1.98321H49.7915C50.2064 1.98321 50.6042 2.14801 50.8976 2.44135C51.1909 2.73469 51.3557 3.13254 51.3557 3.54739V10.3255H9.64434V3.54739ZM1.30207 23.3603C1.29765 21.3733 2.04969 19.4591 3.40544 18.0066C4.76119 16.554 6.619 15.6719 8.60156 15.5394V39.002C8.60156 39.6935 8.87622 40.3565 9.36512 40.8454C9.85402 41.3343 10.5171 41.609 11.2085 41.609H49.7915C50.4829 41.609 51.146 41.3343 51.6349 40.8454C52.1238 40.3565 52.3985 39.6935 52.3985 39.002V15.5394C54.3774 15.6716 56.2322 16.5508 57.5875 17.9989C58.9427 19.4471 59.6971 21.3561 59.698 23.3394V44.1951C59.6991 44.7205 59.6467 45.2446 59.5415 45.7593H1.45849C1.35472 45.2514 1.30231 44.7343 1.30207 44.216V23.3603ZM43.0134 60.3791H19.0294V57.2508H43.0134V60.3791ZM33.6284 56.208H27.3717V53.0796H33.6284V56.208ZM51.8771 52.0368H9.12295C7.50761 52.0345 5.93263 51.5319 4.6144 50.5984C3.29616 49.6648 2.29935 48.3459 1.7609 46.8229H59.2391C58.7007 48.3459 57.7039 49.6648 56.3856 50.5984C55.0674 51.5319 53.4924 52.0345 51.8771 52.0368Z" fill="#27374F"/>
<path d="M13.816 4.06885C13.4036 4.06885 13.0003 4.19116 12.6574 4.42033C12.3144 4.64949 12.0471 4.97522 11.8892 5.3563C11.7314 5.73739 11.6901 6.15673 11.7705 6.56129C11.851 6.96585 12.0496 7.33746 12.3413 7.62913C12.633 7.92081 13.0046 8.11944 13.4092 8.19991C13.8137 8.28038 14.2331 8.23908 14.6142 8.08123C14.9952 7.92338 15.321 7.65606 15.5501 7.31309C15.7793 6.97012 15.9016 6.5669 15.9016 6.15442C15.9016 5.60129 15.6819 5.07082 15.2908 4.6797C14.8996 4.28858 14.3692 4.06885 13.816 4.06885ZM13.816 7.1972C13.6098 7.1972 13.4082 7.13604 13.2367 7.02146C13.0652 6.90688 12.9316 6.74402 12.8526 6.55347C12.7737 6.36293 12.7531 6.15326 12.7933 5.95098C12.8335 5.7487 12.9328 5.56289 13.0787 5.41706C13.2245 5.27122 13.4103 5.1719 13.6126 5.13167C13.8149 5.09143 14.0245 5.11208 14.2151 5.19101C14.4056 5.26993 14.5685 5.40359 14.6831 5.57508C14.7977 5.74656 14.8588 5.94817 14.8588 6.15442C14.8588 6.43098 14.749 6.69621 14.5534 6.89177C14.3578 7.08733 14.0926 7.1972 13.816 7.1972Z" fill="#27374F"/>
<path d="M20.0731 4.06885C19.6606 4.06885 19.2574 4.19116 18.9144 4.42033C18.5715 4.64949 18.3042 4.97522 18.1463 5.3563C17.9885 5.73739 17.9472 6.15673 18.0276 6.56129C18.1081 6.96585 18.3067 7.33746 18.5984 7.62913C18.8901 7.92081 19.2617 8.11944 19.6662 8.19991C20.0708 8.28038 20.4901 8.23908 20.8712 8.08123C21.2523 7.92338 21.578 7.65606 21.8072 7.31309C22.0364 6.97012 22.1587 6.5669 22.1587 6.15442C22.1587 5.60129 21.939 5.07082 21.5478 4.6797C21.1567 4.28858 20.6262 4.06885 20.0731 4.06885ZM20.0731 7.1972C19.8669 7.1972 19.6653 7.13604 19.4938 7.02146C19.3223 6.90688 19.1886 6.74402 19.1097 6.55347C19.0308 6.36293 19.0101 6.15326 19.0504 5.95098C19.0906 5.7487 19.1899 5.56289 19.3358 5.41706C19.4816 5.27122 19.6674 5.1719 19.8697 5.13167C20.072 5.09143 20.2816 5.11208 20.4722 5.19101C20.6627 5.26993 20.8256 5.40359 20.9402 5.57508C21.0547 5.74656 21.1159 5.94817 21.1159 6.15442C21.1159 6.43098 21.006 6.69621 20.8105 6.89177C20.6149 7.08733 20.3497 7.1972 20.0731 7.1972Z" fill="#27374F"/>
<path d="M26.3287 4.06885C25.9162 4.06885 25.513 4.19116 25.1701 4.42033C24.8271 4.64949 24.5598 4.97522 24.4019 5.3563C24.2441 5.73739 24.2028 6.15673 24.2832 6.56129C24.3637 6.96585 24.5623 7.33746 24.854 7.62913C25.1457 7.92081 25.5173 8.11944 25.9219 8.19991C26.3264 8.28038 26.7458 8.23908 27.1268 8.08123C27.5079 7.92338 27.8337 7.65606 28.0628 7.31309C28.292 6.97012 28.4143 6.5669 28.4143 6.15442C28.4143 5.60129 28.1946 5.07082 27.8035 4.6797C27.4123 4.28858 26.8819 4.06885 26.3287 4.06885ZM26.3287 7.1972C26.1225 7.1972 25.9209 7.13604 25.7494 7.02146C25.5779 6.90688 25.4443 6.74402 25.3653 6.55347C25.2864 6.36293 25.2657 6.15326 25.306 5.95098C25.3462 5.7487 25.4455 5.56289 25.5914 5.41706C25.7372 5.27122 25.923 5.1719 26.1253 5.13167C26.3276 5.09143 26.5372 5.11208 26.7278 5.19101C26.9183 5.26993 27.0812 5.40359 27.1958 5.57508C27.3104 5.74656 27.3715 5.94817 27.3715 6.15442C27.3715 6.43098 27.2617 6.69621 27.0661 6.89177C26.8705 7.08733 26.6053 7.1972 26.3287 7.1972Z" fill="#27374F"/>
<path d="M15.3805 36.3952H26.3298C26.9114 36.3985 27.4829 36.5483 27.9914 36.8308C28.4999 37.1133 28.929 37.5194 29.2391 38.0115L30.0629 39.2837H30.1151C30.1662 39.3404 30.2308 39.3834 30.3028 39.4089L30.5009 39.5236H30.6469C30.7278 39.4937 30.7997 39.4434 30.8554 39.3776L31.7314 38.1054C32.0842 37.6033 32.5526 37.1934 33.097 36.9103C33.6415 36.6272 34.2461 36.4791 34.8597 36.4787H45.6213C45.7595 36.4787 45.8922 36.4237 45.9899 36.3259C46.0877 36.2282 46.1426 36.0955 46.1426 35.9573V16.1444C46.1426 16.0061 46.0877 15.8735 45.9899 15.7757C45.8922 15.6779 45.7595 15.623 45.6213 15.623H34.8076C33.9307 15.6127 33.0674 15.8399 32.3092 16.2805C31.551 16.7211 30.9261 17.3587 30.5009 18.1257C30.1368 17.3608 29.5658 16.7131 28.8526 16.2561C28.1393 15.799 27.3124 15.5508 26.4653 15.5396H15.3805C15.2422 15.5396 15.1096 15.5945 15.0118 15.6923C14.9141 15.79 14.8591 15.9227 14.8591 16.0609V35.8738C14.8591 36.0121 14.9141 36.1447 15.0118 36.2425C15.1096 36.3403 15.2422 36.3952 15.3805 36.3952ZM34.8076 16.5823H45.0999V35.3524H34.964C34.1974 35.3491 33.4409 35.5268 32.7559 35.8711C32.071 36.2154 31.477 36.7165 31.0223 37.3337V20.2321C31.0415 19.2465 31.4508 18.3088 32.1604 17.6246C32.87 16.9404 33.822 16.5656 34.8076 16.5823ZM15.9019 16.5823H26.4653C27.4149 16.6015 28.3182 16.9965 28.9769 17.6807C29.6357 18.3649 29.9963 19.2824 29.9795 20.2321V37.2399C29.5656 36.6572 29.0184 36.1818 28.3835 35.8535C27.7487 35.5252 27.0445 35.3534 26.3298 35.3524H15.9019V16.5823Z" fill="#27374F"/>
<path d="M32.878 21.7963C32.9499 21.8297 33.0281 21.8474 33.1074 21.8485C33.2051 21.8487 33.3009 21.8214 33.3839 21.7698C33.4669 21.7181 33.5336 21.6442 33.5766 21.5565C34.4734 19.7108 36.0897 19.7108 37.2785 19.7108H41.4497C41.5879 19.7108 41.7206 19.6558 41.8183 19.558C41.9161 19.4603 41.971 19.3276 41.971 19.1894C41.971 19.0511 41.9161 18.9185 41.8183 18.8207C41.7206 18.7229 41.5879 18.668 41.4497 18.668H37.2785C36.0689 18.668 33.8269 18.668 32.6381 21.0455C32.6009 21.1097 32.5775 21.1811 32.5695 21.2549C32.5615 21.3287 32.569 21.4034 32.5916 21.4741C32.6142 21.5448 32.6514 21.61 32.7007 21.6655C32.75 21.721 32.8104 21.7656 32.878 21.7963Z" fill="#27374F"/>
<path d="M32.878 27.0102C32.9499 27.0435 33.0281 27.0613 33.1074 27.0623C33.2051 27.0625 33.3009 27.0353 33.3839 26.9836C33.4669 26.932 33.5336 26.8581 33.5766 26.7703C34.4734 24.9246 36.0897 24.9246 37.2785 24.9246H41.4497C41.5879 24.9246 41.7206 24.8697 41.8183 24.7719C41.9161 24.6741 41.971 24.5415 41.971 24.4032C41.971 24.2649 41.9161 24.1323 41.8183 24.0345C41.7206 23.9368 41.5879 23.8818 41.4497 23.8818H37.2785C36.0689 23.8818 33.8269 23.8818 32.6381 26.2594C32.6009 26.3236 32.5775 26.3949 32.5695 26.4687C32.5615 26.5426 32.569 26.6172 32.5916 26.6879C32.6142 26.7587 32.6514 26.8239 32.7007 26.8794C32.75 26.9349 32.8104 26.9794 32.878 27.0102Z" fill="#27374F"/>
<path d="M32.878 32.2245C32.9536 32.2403 33.0317 32.2403 33.1074 32.2245C33.2051 32.2247 33.3009 32.1975 33.3839 32.1458C33.4669 32.0942 33.5336 32.0203 33.5766 31.9326C34.4734 30.139 36.0897 30.139 37.2785 30.139H41.4497C41.5879 30.139 41.7206 30.084 41.8183 29.9863C41.9161 29.8885 41.971 29.7559 41.971 29.6176C41.971 29.4793 41.9161 29.3467 41.8183 29.2489C41.7206 29.1511 41.5879 29.0962 41.4497 29.0962H37.2785C36.0689 29.0962 33.8269 29.0962 32.6381 31.4737C32.6009 31.538 32.5775 31.6093 32.5695 31.6831C32.5615 31.7569 32.569 31.8316 32.5916 31.9023C32.6142 31.973 32.6514 32.0382 32.7007 32.0937C32.75 32.1492 32.8104 32.1938 32.878 32.2245Z" fill="#27374F"/>
<path d="M19.5509 19.7108H23.7221C24.9108 19.7108 26.5272 19.7108 27.424 21.5043C27.4669 21.5921 27.5337 21.666 27.6167 21.7176C27.6997 21.7692 27.7955 21.7965 27.8932 21.7963C27.9725 21.7953 28.0507 21.7775 28.1226 21.7442C28.2453 21.6815 28.3389 21.5736 28.3836 21.4433C28.4284 21.313 28.4208 21.1704 28.3625 21.0455C27.1737 18.668 24.9317 18.668 23.7221 18.668H19.5509C19.4127 18.668 19.28 18.7229 19.1823 18.8207C19.0845 18.9185 19.0295 19.0511 19.0295 19.1894C19.0295 19.3276 19.0845 19.4603 19.1823 19.558C19.28 19.6558 19.4127 19.7108 19.5509 19.7108Z" fill="#27374F"/>
<path d="M19.5509 24.9246H23.7221C24.9108 24.9246 26.5272 24.9246 27.424 26.7182C27.4669 26.806 27.5337 26.8799 27.6167 26.9315C27.6997 26.9831 27.7955 27.0104 27.8932 27.0102C27.9725 27.0092 28.0507 26.9914 28.1226 26.958C28.2453 26.8953 28.3389 26.7875 28.3836 26.6571C28.4284 26.5268 28.4208 26.3842 28.3625 26.2594C27.1737 23.8818 24.9317 23.8818 23.7221 23.8818H19.5509C19.4127 23.8818 19.28 23.9368 19.1823 24.0345C19.0845 24.1323 19.0295 24.2649 19.0295 24.4032C19.0295 24.5415 19.0845 24.6741 19.1823 24.7719C19.28 24.8697 19.4127 24.9246 19.5509 24.9246Z" fill="#27374F"/>
<path d="M27.424 31.9326C27.4669 32.0203 27.5337 32.0942 27.6167 32.1458C27.6997 32.1975 27.7955 32.2247 27.8932 32.2245C27.9689 32.2403 28.047 32.2403 28.1226 32.2245C28.2453 32.1618 28.3389 32.054 28.3836 31.9236C28.4284 31.7933 28.4208 31.6507 28.3625 31.5259C27.1737 29.0962 24.9317 29.0962 23.7221 29.0962H19.5509C19.4127 29.0962 19.28 29.1511 19.1823 29.2489C19.0845 29.3467 19.0295 29.4793 19.0295 29.6176C19.0295 29.7559 19.0845 29.8885 19.1823 29.9863C19.28 30.084 19.4127 30.139 19.5509 30.139H23.7221C24.9108 30.139 26.5272 30.139 27.424 31.9326Z" fill="#27374F"/>
</svg>