<svg xmlns="http://www.w3.org/2000/svg" width="73" height="70" viewBox="0 0 73 70" fill="none">
  <path d="M63.7321 27.4507C63.6122 27.1734 63.3076 27.0297 63.02 27.1118C62.6914 27.2042 55.2596 29.3849 52.2577 33.5919C49.8923 31.6578 41.3955 25.0203 37.863 26.6189H37.8595C36.4116 27.437 35.0799 28.4502 33.9092 29.6313C29.5172 26.547 22.4177 28.7173 20.453 29.3848C17.6049 24.2466 10.8308 24.1918 10.5398 24.1918C10.3036 24.1884 10.0914 24.3287 10.0024 24.5478L0.827997 45.3504C0.73557 45.5523 0.769802 45.7851 0.910154 45.9529C4.47028 50.4543 9.7384 50.3791 11.3719 50.2353C14.0009 56.6264 27.5193 65.7526 33.2804 69.4499C33.8041 69.7888 34.4169 69.9702 35.0399 69.9702C36.7275 69.9668 38.1448 68.7002 38.3364 67.0228V66.8859C39.425 67.9026 41.0031 68.1901 42.3792 67.6219C43.7553 67.0536 44.6728 65.7357 44.7276 64.2466C44.731 64.2021 44.731 64.1576 44.7276 64.1096L45.0665 64.4211H45.063C46.4289 65.6706 48.5205 65.6706 49.8829 64.4211C50.6531 63.7536 51.1152 62.7985 51.1631 61.7819C51.17 61.5012 51.146 61.2205 51.0878 60.9432C51.3856 61.0219 51.6937 61.0664 52.0019 61.0698C53.5149 61.0733 54.8842 60.173 55.4833 58.7797C56.0789 57.3899 55.788 55.7741 54.7405 54.6821L38.5387 37.9773C38.3093 37.7617 37.9533 37.7617 37.724 37.9773L32.7124 42.294C31.3602 43.4168 29.3713 43.3176 28.1424 42.0612C26.9101 40.8015 26.8518 38.8126 28.0021 37.4844C32.9315 32.0073 36.6011 28.5194 38.3534 27.7351C40.7462 26.6499 47.8941 31.5041 51.899 34.8725L59.9058 52.5193L57.2768 54.8368C57.1604 54.9395 57.0851 55.0867 57.0748 55.2441C57.0646 55.4016 57.1193 55.5591 57.222 55.6755C57.4411 55.9185 57.8142 55.9425 58.0641 55.7302L60.8027 53.358C65.6055 55.0182 72.3318 49.0756 72.671 48.7949H72.6675C72.8592 48.6203 72.9174 48.3464 72.8147 48.1102L63.7321 27.4507ZM2.08685 45.47L10.9493 25.3861C12.3631 25.4785 17.3849 26.1084 19.5381 30.1409L11.3498 49.0024C10.1003 49.129 5.30783 49.2766 2.08685 45.47ZM27.1449 36.6689C25.5497 38.4661 25.6181 41.191 27.3024 42.9026C28.99 44.6142 31.7114 44.7271 33.5326 43.1593L38.0957 39.2056L53.8873 55.445L53.8908 55.4484C54.8937 56.4582 54.8937 58.0877 53.8908 59.0976C53.4149 59.5974 52.7542 59.8746 52.0662 59.8575C51.3782 59.8507 50.7209 59.5734 50.2383 59.0805L44.0662 52.8263L41.064 49.7865L40.15 48.8724L40.1535 48.8759C39.9207 48.6431 39.5441 48.6431 39.3113 48.8759C39.082 49.1052 39.082 49.4818 39.3113 49.7145L43.1658 53.641L49.2557 59.813L49.2523 59.8096C49.7452 60.3162 50.0122 60.9975 49.9917 61.6992C49.9711 62.3975 49.6699 63.0582 49.153 63.5271C48.2424 64.3521 46.8526 64.3521 45.9386 63.5271L43.5937 61.3465L36.8466 55.0649L36.2064 54.4727L36.2098 54.4693C35.9736 54.2434 35.6039 54.2434 35.3677 54.4693C35.2582 54.5823 35.1932 54.7329 35.1932 54.8904C35.1932 55.0478 35.2582 55.1984 35.3677 55.3114L42.7516 62.1955L42.755 62.1921C43.7957 63.1848 43.8368 64.8313 42.844 65.872C41.8547 66.9126 40.2082 66.9537 39.1675 65.9644L35.9908 62.887L31.0614 58.1321L30.5137 57.6015C30.2775 57.3722 29.9009 57.3756 29.6716 57.6118C29.4422 57.8446 29.449 58.2211 29.6818 58.4505L33.8615 62.5138L36.6001 65.1326C37.0759 65.5844 37.3087 66.2348 37.23 66.8853C37.1581 67.5391 36.7884 68.1211 36.227 68.4634C35.5458 68.8981 34.6729 68.8981 33.9916 68.4634C29.473 65.5605 14.7393 55.8046 12.4012 49.5774L20.6169 30.5889C21.9041 30.1233 28.8874 27.8503 33.0224 30.4622C31.0506 32.3621 28.9316 34.6419 27.1173 36.6684L27.1449 36.6689ZM61.0925 52.1863L53.0583 34.5324C55.2936 31.0989 61.1096 28.9834 62.8522 28.4083L71.4615 48.1803C70.0854 49.3202 64.6699 53.5033 61.0655 52.1615L61.0925 52.1863ZM36.1817 11.4847V17.9648C34.8124 17.8587 33.604 17.0405 32.9947 15.8116C32.8646 15.5104 32.5121 15.37 32.2108 15.5001C31.9061 15.6336 31.7692 15.9828 31.8993 16.2874C32.7072 17.9408 34.3435 19.0363 36.1817 19.1526V20.5493C36.1817 20.878 36.4453 21.1416 36.7739 21.1416C37.1025 21.1416 37.3661 20.878 37.3661 20.5493V19.1801C39.9506 18.9233 41.9292 17.044 41.9292 14.771C41.9292 12.4981 39.9198 10.6084 37.3661 10.362V3.85446C38.7628 3.97085 39.9883 4.82668 40.5805 6.10008C40.6353 6.24728 40.7483 6.3671 40.8921 6.42871C41.0393 6.49033 41.2036 6.49033 41.3473 6.42871C41.4945 6.37052 41.6144 6.25755 41.676 6.11036C41.7376 5.96316 41.7376 5.79884 41.676 5.65164C40.8852 3.95715 39.2318 2.83088 37.3661 2.71109V1.26995C37.3661 0.94132 37.1025 0.677734 36.7739 0.677734C36.4453 0.677734 36.1817 0.94132 36.1817 1.26995V2.65632C33.5972 2.91306 31.6186 4.79239 31.6186 7.07569C31.6152 9.359 33.5972 11.228 36.1817 11.4847ZM40.7448 14.771C40.7448 16.397 39.2557 17.7389 37.3319 17.975V11.5771C39.2934 11.7961 40.7825 13.138 40.7825 14.7709L40.7448 14.771ZM36.1817 3.86141V10.2526C34.2545 10.0164 32.7688 8.67444 32.7688 7.04848C32.7654 5.42244 34.2545 4.101 36.1817 3.86141ZM20.0238 4.2722C19.8594 4.05996 19.856 3.76557 20.0203 3.5499C20.1812 3.33766 20.4688 3.25893 20.7152 3.36163L26.7332 7.68855C26.8599 7.77756 26.9489 7.91791 26.9729 8.07538C27.0003 8.22942 26.9626 8.39032 26.8702 8.51698C26.7538 8.67102 26.5758 8.76002 26.3841 8.76345C26.2608 8.76687 26.1376 8.72579 26.0383 8.64706L20.0238 4.2722ZM26.8325 17.1158C26.9352 17.2425 26.9831 17.4034 26.9626 17.5643C26.9454 17.7217 26.8599 17.8689 26.7332 17.9648L20.7529 22.3191C20.6502 22.3944 20.5304 22.4321 20.4072 22.4287C20.2155 22.4321 20.0374 22.3397 19.9313 22.1822C19.8389 22.059 19.7978 21.9015 19.8252 21.7475C19.8492 21.59 19.9313 21.4531 20.058 21.3606L26.0006 17.0542C26.2539 16.8488 26.6236 16.8865 26.8325 17.1364L26.8325 17.1158ZM17.751 12.806V12.8094C17.751 12.4808 18.0146 12.2138 18.3432 12.2138H25.8194C25.9769 12.2138 26.1275 12.2788 26.2405 12.3884C26.35 12.5013 26.4116 12.6519 26.4116 12.8094C26.4116 12.9669 26.35 13.1175 26.2405 13.227C26.1275 13.34 25.9769 13.4016 25.8194 13.4016H18.3328C18.0179 13.3982 17.7612 13.1449 17.7509 12.8265L17.751 12.806ZM46.7149 8.49615V8.49958C46.6224 8.37292 46.5848 8.21203 46.6122 8.05456C46.6361 7.90052 46.7217 7.76017 46.8518 7.66774L52.8219 3.36132C52.9485 3.26889 53.1094 3.23123 53.2669 3.2552C53.4209 3.28259 53.5613 3.36817 53.6537 3.49825C53.7461 3.62148 53.7838 3.77895 53.7598 3.93299C53.7359 4.09046 53.6503 4.22739 53.5236 4.31981L47.5467 8.64674C47.4474 8.72547 47.3242 8.76655 47.1975 8.76313C47.0093 8.7597 46.8313 8.6707 46.7149 8.51666L46.7149 8.49615ZM46.8141 17.965C46.6601 17.8828 46.554 17.7356 46.5197 17.5611C46.4855 17.3899 46.5266 17.2119 46.6361 17.075C46.7457 16.938 46.91 16.8559 47.088 16.8525C47.2626 16.849 47.4303 16.9209 47.5467 17.0544L53.527 21.4088H53.5236C53.6502 21.4978 53.7358 21.6381 53.7598 21.7922C53.7837 21.9462 53.7461 22.1037 53.6537 22.2303C53.5441 22.3844 53.3661 22.4768 53.1778 22.4768C53.0512 22.4768 52.928 22.4392 52.8218 22.3673L46.8141 17.965ZM47.7282 12.2311H55.2147V12.2345C55.5399 12.2345 55.8069 12.4981 55.8069 12.8267C55.8069 13.1554 55.5399 13.419 55.2147 13.419H47.7282C47.3995 13.419 47.1359 13.1554 47.1359 12.8267C47.1359 12.4981 47.3995 12.2345 47.7282 12.2345V12.2311Z" fill="#27374F"/>
</svg>