<svg xmlns="http://www.w3.org/2000/svg" width="65" height="63" viewBox="0 0 65 63" fill="none">
  <path d="M32.3514 34.5254C33.0856 34.5256 33.7448 35.0558 33.9657 35.7402L36.536 44.0068H44.9071C45.6412 44.007 46.3004 44.5374 46.5213 45.2217C46.7422 45.9802 46.5218 46.7389 45.8621 47.1953L39.0321 52.2773L41.6766 60.5439C41.8975 61.3025 41.6762 62.0612 41.0164 62.5176C40.4284 62.9737 39.6224 62.9738 38.9598 62.5176L32.4969 57.4355L25.7411 62.5947C25.374 62.7458 25.0788 62.8965 24.7118 62.8965C24.3447 62.8964 23.9778 62.7456 23.6854 62.5176C23.0973 62.0612 22.8044 61.2285 23.0252 60.5439L25.6707 52.2773L18.8397 47.1953C18.2518 46.7389 17.9597 45.9061 18.1805 45.2217C18.4014 44.4632 19.0614 44.0068 19.7957 44.0068H28.1659L30.7362 35.7402C30.9571 34.9817 31.617 34.5254 32.3514 34.5254ZM29.8534 45.2246C29.7071 45.6039 29.4114 45.9062 28.9725 45.9062H20.2352L27.286 51.2158C27.5786 51.444 27.7277 51.8981 27.6532 52.2773L24.9373 60.8496L31.9881 55.54C32.1314 55.3122 32.2775 55.3115 32.4979 55.3115C32.7188 55.3115 32.8653 55.3878 33.0116 55.4619L40.0623 60.7725L37.3455 52.1992C37.1996 51.8201 37.3459 51.3638 37.7127 51.1387L44.7645 45.8291H36.0272C35.6601 45.8291 35.2927 45.6007 35.1463 45.1475L32.4979 36.6523L29.8534 45.2246ZM12.6707 30.8086C13.3304 30.8086 13.9931 31.2649 14.1395 31.9463L16.1961 38.623H22.952C23.4654 38.6231 23.8328 39.0789 23.8329 39.5322C23.8329 40.0626 23.3909 40.5195 22.952 40.5195H15.533C15.166 40.5194 14.7985 40.291 14.6522 39.8379L12.5955 33.3125L10.5389 39.8379C10.3926 40.217 10.0968 40.5195 9.65805 40.5195H3.04867L8.41098 44.54C8.70332 44.7682 8.85253 45.2215 8.77816 45.6006L6.86996 52.126L12.2313 48.1045C12.5238 47.8764 12.9657 47.8765 13.3329 48.1045L19.3543 52.6562C19.7961 52.9585 19.8676 53.566 19.575 53.9453C19.2824 54.4015 18.6941 54.476 18.327 54.1738L12.8944 50.0781L7.46078 54.1738C7.01644 54.3249 6.64965 54.4784 6.35434 54.4785C6.0619 54.4785 5.69465 54.4017 5.39926 54.1768C4.81134 53.7976 4.58976 53.0388 4.81039 52.3574L6.9393 45.7578L1.43148 41.6631C0.920926 41.2038 0.699979 40.4451 0.920743 39.7607C1.14162 39.0792 1.72977 38.6231 2.38949 38.623H9.14535L11.202 31.9463C11.4229 31.2649 12.0111 30.8086 12.6707 30.8086ZM52.3309 30.8086C52.9905 30.8088 53.6533 31.265 53.7996 31.9463L55.8563 38.623H62.6121C63.2718 38.6233 63.9346 39.0794 64.0809 39.7607C64.3016 40.4422 64.08 41.2009 63.492 41.5801L57.9842 45.6748L60.1131 52.2744C60.3338 52.9558 60.1132 53.7145 59.5252 54.0938C59.3044 54.3219 59.0115 54.4756 58.6444 54.4756C58.3519 54.4755 57.9847 54.3989 57.6893 54.1738L52.2567 50.0781L46.8231 54.1738C46.3814 54.476 45.8676 54.4016 45.575 53.9453C45.2825 53.4891 45.3542 52.9585 45.7957 52.6562L51.8172 48.1045C52.1098 47.8765 52.5517 47.8765 52.9188 48.1045L58.2801 52.126L56.2235 45.6006C56.0774 45.2214 56.2236 44.7651 56.5907 44.54L61.952 40.5195H55.3426C54.9756 40.5194 54.608 40.291 54.4618 39.8379L52.4051 33.3125L50.3485 39.8379C50.2021 40.217 49.9064 40.5195 49.4676 40.5195H42.0496C41.5362 40.5195 41.1688 40.0627 41.1688 39.5322C41.1689 39.0019 41.6108 38.623 42.0496 38.623H48.8045L50.8621 31.9463C51.0831 31.265 51.6713 30.8086 52.3309 30.8086ZM40.4989 17.458C43.4362 17.458 45.7858 19.8848 45.786 22.9189L45.7889 32.3242H43.953V22.9189C43.9528 20.9456 42.4093 19.3545 40.5018 19.3545H24.5643C22.6539 19.3545 21.1133 20.9486 21.1131 22.9189V32.3242H19.2772V22.9189C19.2774 19.8848 21.6269 17.458 24.5643 17.458H40.4989ZM32.4237 0.46582C36.0955 0.46582 39.033 3.57719 39.033 7.29297C39.033 11.0117 36.0955 14.1201 32.4237 14.1201C28.752 14.1199 25.8143 11.0086 25.8143 7.29297C25.8143 3.57733 28.8266 0.466053 32.4237 0.46582ZM32.4237 2.28809C29.779 2.28831 27.6502 4.48681 27.6502 7.21875C27.6503 9.95066 29.779 12.1492 32.4237 12.1494C35.0686 12.1494 37.1971 9.9508 37.1971 7.21875C37.1971 4.48667 35.0686 2.28809 32.4237 2.28809Z" fill="white"/>
</svg>