<svg xmlns="http://www.w3.org/2000/svg" width="67" height="53" viewBox="0 0 67 53" fill="none">
  <path d="M53.2655 52.7248H13.63C13.0041 52.7248 12.5869 52.2433 12.5869 51.5211V11.8013C12.5869 11.0791 13.0041 10.5977 13.63 10.5977C14.2558 10.5977 14.673 11.0791 14.673 11.8013V50.3175H52.2225V11.8013C52.2225 11.0791 52.6397 10.5977 53.2655 10.5977C53.8914 10.5977 54.3086 11.0791 54.3086 11.8013V51.5211C54.3086 52.1229 53.8914 52.7248 53.2655 52.7248Z" fill="#27374F"/>
  <path d="M65.7822 52.725H1.1136C0.487773 52.725 0.0705566 52.2436 0.0705566 51.5214V27.4488C0.0705566 26.9673 0.383469 26.4859 0.800686 26.2451L13.3172 21.551C13.8387 21.3103 14.4645 21.6714 14.6731 22.2732C14.8817 22.875 14.5688 23.5972 14.0473 23.8379L2.15664 28.2913V50.3178H64.7391V28.2913L52.9528 23.9583C52.4312 23.7175 52.1183 23.1157 52.3269 22.3935C52.5355 21.6714 53.0571 21.4306 53.6829 21.6714L66.1994 26.3655C66.6166 26.4859 66.9295 26.9673 66.9295 27.5691V51.6418C66.8252 52.1232 66.408 52.725 65.7822 52.725Z" fill="#27374F"/>
  <path d="M58.4805 14.9308C58.3762 14.9308 58.1676 14.9308 58.0633 14.8105L33.4475 3.25559L8.7274 14.8105C8.20587 15.0512 7.58005 14.8105 7.37144 14.0883C7.16283 13.3661 7.37144 12.7643 7.99727 12.5236L33.0303 0.727968C33.2389 0.607605 33.5518 0.607605 33.8647 0.727968L58.8977 12.5236C59.4192 12.7643 59.7321 13.4865 59.5235 14.0883C59.3149 14.6901 58.8977 14.9308 58.4805 14.9308Z" fill="#27374F"/>
  <path d="M40.7491 52.725H26.1466C25.5207 52.725 25.1035 52.2435 25.1035 51.5214V28.6524C25.1035 27.9302 25.5207 27.4487 26.1466 27.4487H40.7491C41.375 27.4487 41.7922 27.9302 41.7922 28.6524V51.5214C41.7922 52.1232 41.2707 52.725 40.7491 52.725ZM27.1896 50.3177H39.7061V29.856H27.1896V50.3177Z" fill="#27374F"/>
</svg>