<svg width="64" height="38" viewBox="0 0 64 38" fill="none" xmlns="http://www.w3.org/2000/svg">
<path d="M5.95117 0.449219L5.95117 15H4.23242L4.23242 2.30469H4.13477L0.599609 4.66797L0.599609 2.87109L4.23242 0.449219L5.95117 0.449219ZM13.0215 15.1953C11.9538 15.1953 11.0423 14.9023 10.2871 14.3164C9.5319 13.7305 8.95573 12.8841 8.55859 11.7773C8.16146 10.6641 7.96289 9.31641 7.96289 7.73438C7.96289 6.15885 8.16146 4.81445 8.55859 3.70117C8.96224 2.58138 9.54167 1.72852 10.2969 1.14258C11.0521 0.55013 11.9603 0.253906 13.0215 0.253906C14.0827 0.253906 14.9909 0.55013 15.7461 1.14258C16.5013 1.72852 17.0775 2.58138 17.4746 3.70117C17.8783 4.81445 18.0801 6.15885 18.0801 7.73438C18.0801 9.31641 17.8815 10.6641 17.4844 11.7773C17.0872 12.8841 16.5111 13.7305 15.7559 14.3164C15.0072 14.9023 14.0957 15.1953 13.0215 15.1953ZM13.0215 13.6523C13.7441 13.6523 14.3561 13.4212 14.8574 12.959C15.3587 12.4902 15.7396 11.8132 16 10.9277C16.2669 10.0423 16.4004 8.97786 16.4004 7.73438C16.4004 6.48438 16.2669 5.41667 16 4.53125C15.7396 3.64583 15.3587 2.96875 14.8574 2.5C14.3561 2.03125 13.7441 1.79688 13.0215 1.79688C11.9408 1.79688 11.1074 2.31771 10.5215 3.35938C9.93555 4.40104 9.64258 5.85938 9.64258 7.73438C9.64258 8.97786 9.77279 10.0423 10.0332 10.9277C10.3001 11.8132 10.6842 12.4902 11.1855 12.959C11.6934 13.4212 12.3053 13.6523 13.0215 13.6523ZM24.584 15.1953C23.5163 15.1953 22.6048 14.9023 21.8496 14.3164C21.0944 13.7305 20.5182 12.8841 20.1211 11.7773C19.724 10.6641 19.5254 9.31641 19.5254 7.73438C19.5254 6.15885 19.724 4.81445 20.1211 3.70117C20.5247 2.58138 21.1042 1.72852 21.8594 1.14258C22.6146 0.55013 23.5228 0.253906 24.584 0.253906C25.6452 0.253906 26.5534 0.55013 27.3086 1.14258C28.0638 1.72852 28.64 2.58138 29.0371 3.70117C29.4408 4.81445 29.6426 6.15885 29.6426 7.73438C29.6426 9.31641 29.444 10.6641 29.0469 11.7773C28.6497 12.8841 28.0736 13.7305 27.3184 14.3164C26.5697 14.9023 25.6582 15.1953 24.584 15.1953ZM24.584 13.6523C25.3066 13.6523 25.9186 13.4212 26.4199 12.959C26.9212 12.4902 27.3021 11.8132 27.5625 10.9277C27.8294 10.0423 27.9629 8.97786 27.9629 7.73438C27.9629 6.48438 27.8294 5.41667 27.5625 4.53125C27.3021 3.64583 26.9212 2.96875 26.4199 2.5C25.9186 2.03125 25.3066 1.79688 24.584 1.79688C23.5033 1.79688 22.6699 2.31771 22.084 3.35938C21.498 4.40104 21.2051 5.85938 21.2051 7.73438C21.2051 8.97786 21.3353 10.0423 21.5957 10.9277C21.8626 11.8132 22.2467 12.4902 22.748 12.959C23.2559 13.4212 23.8678 13.6523 24.584 13.6523ZM35.6973 14.0039V4.62891L37.2793 4.62891V14.0039H35.6973ZM31.791 10.1172V8.51563L41.166 8.51563V10.1172L31.791 10.1172ZM2.02539 37H0.169922L5.52148 22.4492H7.33789L12.6699 37H10.834L6.47852 24.7539H6.36133L2.02539 37ZM2.70898 31.3164H10.1504V32.8789H2.70898L2.70898 31.3164ZM14.877 37L11.5566 26.082H13.3145L15.6777 34.4414H15.7949L18.1191 26.082H19.916L22.2012 34.4219L22.3184 34.4219L24.6816 26.082H26.4395L23.1191 37L21.4785 37L19.0762 28.6211H18.9199L16.5176 37H14.877ZM30.9316 37.2539C30.2415 37.2539 29.6133 37.1237 29.0469 36.8633C28.4805 36.5964 28.0312 36.2122 27.6992 35.7109C27.3672 35.2096 27.2012 34.6042 27.2012 33.8945C27.2012 33.2695 27.3249 32.765 27.5723 32.3809C27.8197 31.9902 28.1484 31.6842 28.5586 31.4629C28.9753 31.235 29.431 31.0658 29.9258 30.9551C30.4271 30.8444 30.9316 30.7565 31.4395 30.6914C32.1035 30.6068 32.6406 30.5417 33.0508 30.4961C33.4674 30.4505 33.7702 30.3724 33.959 30.2617C34.1543 30.151 34.252 29.9622 34.252 29.6953V29.6367C34.252 28.9401 34.0599 28.3997 33.6758 28.0156C33.2982 27.625 32.722 27.4297 31.9473 27.4297C31.153 27.4297 30.528 27.6055 30.0723 27.957C29.6165 28.3021 29.2975 28.6732 29.1152 29.0703L27.5137 28.5039C27.8001 27.8398 28.181 27.3223 28.6562 26.9512C29.138 26.5801 29.6589 26.3197 30.2187 26.1699C30.7852 26.0202 31.3418 25.9453 31.8887 25.9453C32.2402 25.9453 32.6439 25.9876 33.0996 26.0723C33.5553 26.1504 33.998 26.3197 34.4277 26.5801C34.8639 26.834 35.222 27.2214 35.502 27.7422C35.7884 28.2565 35.9316 28.9466 35.9316 29.8125V37H34.252V35.5156H34.1738C34.0632 35.75 33.8743 36.0039 33.6074 36.2773C33.3405 36.5443 32.9857 36.7754 32.543 36.9707C32.1068 37.1595 31.5697 37.2539 30.9316 37.2539ZM31.1855 35.75C31.8496 35.75 32.4095 35.6198 32.8652 35.3594C33.321 35.099 33.666 34.7637 33.9004 34.3535C34.1348 33.9368 34.252 33.5039 34.252 33.0547V31.5117C34.1803 31.5964 34.0241 31.6745 33.7832 31.7461C33.5488 31.8112 33.2754 31.8698 32.9629 31.9219C32.6569 31.974 32.3574 32.0195 32.0645 32.0586C31.7715 32.0911 31.5371 32.1172 31.3613 32.1367C30.9251 32.1953 30.5182 32.2897 30.1406 32.4199C29.763 32.5436 29.457 32.7292 29.2227 32.9766C28.9948 33.224 28.8809 33.5625 28.8809 33.9922C28.8809 34.5716 29.0957 35.0111 29.5254 35.3105C29.9616 35.6035 30.515 35.75 31.1855 35.75ZM38.0801 37V26.082H39.6816V27.7422H39.7988C40.0007 27.2018 40.362 26.7656 40.8828 26.4336C41.4102 26.0951 41.9993 25.9258 42.6504 25.9258C42.7741 25.9258 42.9271 25.929 43.1094 25.9355C43.2917 25.9355 43.4316 25.9388 43.5293 25.9453V27.6445C43.4707 27.6315 43.3405 27.612 43.1387 27.5859C42.9368 27.5599 42.722 27.5469 42.4941 27.5469C41.9668 27.5469 41.4948 27.6576 41.0781 27.8789C40.6615 28.1003 40.3327 28.403 40.0918 28.7871C39.8574 29.1712 39.7402 29.6107 39.7402 30.1055V37H38.0801ZM48.3535 37.2344C47.4421 37.2344 46.638 37.0033 45.9414 36.541C45.2448 36.0788 44.7012 35.4245 44.3105 34.5781C43.9199 33.7253 43.7246 32.7227 43.7246 31.5703C43.7246 30.4245 43.9199 29.4316 44.3105 28.5918C44.7077 27.7454 45.2546 27.0944 45.9512 26.6387C46.6478 26.1764 47.4551 25.9453 48.373 25.9453C49.0892 25.9453 49.6523 26.0625 50.0625 26.2969C50.4792 26.5313 50.7982 26.7982 51.0195 27.0977C51.2409 27.3906 51.4134 27.6315 51.5371 27.8203H51.6738V22.4492H53.334V37H51.7324V35.3203H51.5371C51.4134 35.5156 51.2376 35.7663 51.0098 36.0723C50.7819 36.3717 50.4564 36.6419 50.0332 36.8828C49.6165 37.1172 49.0566 37.2344 48.3535 37.2344ZM48.5684 35.7305C49.2454 35.7305 49.8151 35.5547 50.2773 35.2031C50.7396 34.8451 51.0911 34.3535 51.332 33.7285C51.5729 33.097 51.6934 32.3711 51.6934 31.5508C51.6934 30.7305 51.5762 30.0143 51.3418 29.4023C51.1074 28.7839 50.7559 28.3053 50.2871 27.9668C49.8249 27.6217 49.252 27.4492 48.5684 27.4492C47.8652 27.4492 47.2793 27.6315 46.8105 27.9961C46.3418 28.3607 45.9902 28.8522 45.7559 29.4707C45.5215 30.0892 45.4043 30.7826 45.4043 31.5508C45.4043 32.3255 45.5215 33.0286 45.7559 33.6602C45.9967 34.2917 46.3516 34.7962 46.8203 35.1738C47.2891 35.5449 47.8717 35.7305 48.5684 35.7305ZM63.1973 28.543L61.6934 28.9531C61.5501 28.582 61.3027 28.2305 60.9512 27.8984C60.6061 27.5599 60.0658 27.3906 59.3301 27.3906C58.666 27.3906 58.1126 27.5469 57.6699 27.8594C57.2272 28.1654 57.0059 28.5495 57.0059 29.0117C57.0059 29.4284 57.1556 29.7604 57.4551 30.0078C57.7611 30.2552 58.2363 30.457 58.8809 30.6133L60.502 31.0039C61.472 31.2383 62.1947 31.5996 62.6699 32.0879C63.1517 32.5762 63.3926 33.1979 63.3926 33.9531C63.3926 34.5781 63.2135 35.138 62.8555 35.6328C62.4974 36.1276 61.9993 36.5182 61.3613 36.8047C60.7233 37.0911 59.9811 37.2344 59.1348 37.2344C58.0215 37.2344 57.1003 36.9902 56.3711 36.502C55.6484 36.0137 55.1895 35.3073 54.9941 34.3828L56.5762 33.9922C56.7259 34.5781 57.0124 35.0176 57.4355 35.3105C57.8652 35.6035 58.4251 35.75 59.1152 35.75C59.89 35.75 60.5085 35.584 60.9707 35.252C61.4395 34.9134 61.6738 34.513 61.6738 34.0508C61.6738 33.2826 61.1335 32.7682 60.0527 32.5078L58.2363 32.0781C57.2337 31.8372 56.498 31.4694 56.0293 30.9746C55.5605 30.4798 55.3262 29.8581 55.3262 29.1094C55.3262 28.4909 55.4987 27.944 55.8437 27.4688C56.1953 26.9935 56.6738 26.6224 57.2793 26.3555C57.8848 26.082 58.5684 25.9453 59.3301 25.9453C60.4173 25.9453 61.2669 26.1862 61.8789 26.668C62.4974 27.1432 62.9368 27.7682 63.1973 28.543Z" fill="black"/>
</svg>
