<svg width="185" height="40" viewBox="0 0 185 40" fill="none" xmlns="http://www.w3.org/2000/svg">
<rect x="1.24631" y="0.712865" width="183.11" height="38.575" rx="19.2875" stroke="#D2D2D2" stroke-width="0.720651"/>
<path d="M29.5967 25V22.2615L29.6255 21.9733V16.0495H30.0147L25.6331 22.0453L25.2439 21.5697H32.1622V22.6074H24.4368V21.7138L29.6543 14.6226H30.8362V25H29.5967ZM32.7768 25V23.5155H34.2613V25H32.7768ZM36.2623 25C36.3968 23.3665 36.7763 21.7523 37.4009 20.1572C38.0351 18.5526 38.9815 16.9143 40.2403 15.2424L40.3123 15.6604H34.2444V14.6226H41.2492V15.4874C40.4805 16.6116 39.8415 17.6974 39.3322 18.7447C38.8326 19.7921 38.4434 20.8298 38.1648 21.858C37.8861 22.8765 37.7084 23.9238 37.6315 25H36.2623Z" fill="#575757"/>
<g clip-path="url(#clip0_1_667)">
<path d="M55.089 17.003L50.4912 17.6696L50.4098 17.6862C50.2865 17.7189 50.1741 17.7838 50.0841 17.8741C49.9941 17.9645 49.9297 18.0771 49.8974 18.2005C49.8652 18.3239 49.8663 18.4537 49.9006 18.5765C49.9349 18.6994 50.0012 18.8109 50.0927 18.8998L53.4235 22.142L52.638 26.7217L52.6287 26.801C52.6211 26.9285 52.6476 27.0557 52.7054 27.1696C52.7632 27.2835 52.8502 27.38 52.9575 27.4492C53.0649 27.5184 53.1887 27.5579 53.3163 27.5635C53.4439 27.5691 53.5707 27.5408 53.6837 27.4813L57.7957 25.3193L61.8984 27.4813L61.9705 27.5144C62.0894 27.5613 62.2187 27.5756 62.345 27.5561C62.4714 27.5365 62.5902 27.4836 62.6894 27.4029C62.7885 27.3222 62.8645 27.2166 62.9093 27.0969C62.9542 26.9772 62.9665 26.8477 62.9448 26.7217L62.1585 22.142L65.4908 18.899L65.547 18.8378C65.6273 18.7389 65.68 18.6205 65.6996 18.4946C65.7193 18.3687 65.7052 18.2399 65.6588 18.1213C65.6125 18.0026 65.5355 17.8984 65.4357 17.8192C65.3359 17.7399 65.217 17.6886 65.0909 17.6703L60.4931 17.003L58.4378 12.8376C58.3784 12.717 58.2863 12.6153 58.172 12.5443C58.0578 12.4732 57.9259 12.4355 57.7914 12.4355C57.6569 12.4355 57.525 12.4732 57.4108 12.5443C57.2965 12.6153 57.2044 12.717 57.145 12.8376L55.089 17.003Z" fill="#F89811"/>
</g>
<path d="M79.3054 25V22.2615L79.3342 21.9733V16.0495H79.7234L75.3418 22.0453L74.9527 21.5697H81.8709V22.6074H74.1456V21.7138L79.3631 14.6226H80.5449V25H79.3054ZM87.6593 25V22.2615L87.6882 21.9733V16.0495H88.0773L83.6958 22.0453L83.3066 21.5697H90.2249V22.6074H82.4995V21.7138L87.717 14.6226H88.8989V25H87.6593ZM95.1629 25.1441C94.3462 25.1441 93.6303 24.9183 93.0154 24.4667C92.41 24.0055 91.9344 23.3713 91.5885 22.5642C91.2522 21.7475 91.084 20.8154 91.084 19.7681C91.084 18.7207 91.2522 17.8031 91.5885 17.0152C91.9248 16.2177 92.4004 15.5979 93.0154 15.1559C93.6303 14.7043 94.3462 14.4785 95.1629 14.4785C95.9796 14.4785 96.6907 14.7043 97.296 15.1559C97.911 15.5979 98.3866 16.2177 98.7229 17.0152C99.0688 17.8031 99.2418 18.7207 99.2418 19.7681C99.2418 20.825 99.0688 21.7571 98.7229 22.5642C98.3866 23.3713 97.911 24.0055 97.296 24.4667C96.6907 24.9183 95.9796 25.1441 95.1629 25.1441ZM95.1629 24.1064C95.749 24.1064 96.2487 23.9334 96.6619 23.5875C97.075 23.232 97.3921 22.7324 97.6131 22.0886C97.8341 21.4352 97.9446 20.6569 97.9446 19.7537C97.9446 18.8601 97.8341 18.0962 97.6131 17.462C97.4017 16.8278 97.0894 16.3474 96.6763 16.0207C96.2631 15.6844 95.7586 15.5162 95.1629 15.5162C94.5672 15.5162 94.0627 15.6844 93.6495 16.0207C93.2364 16.357 92.9193 16.8422 92.6983 17.4764C92.4869 18.101 92.3812 18.8601 92.3812 19.7537C92.3812 20.6569 92.4917 21.4352 92.7127 22.0886C92.9337 22.742 93.2508 23.2416 93.6639 23.5875C94.0771 23.9334 94.5768 24.1064 95.1629 24.1064ZM102.75 22.7948V16.4963H103.759V22.7948H102.75ZM100.286 20.1428V19.1627H106.21V20.1428H100.286ZM110.626 25V14.6226H114.46C115.2 14.6226 115.829 14.7427 116.348 14.9829C116.867 15.2232 117.261 15.5595 117.53 15.9919C117.809 16.4146 117.948 16.9191 117.948 17.5052C117.948 18.0914 117.809 18.6054 117.53 19.0474C117.261 19.4798 116.867 19.8209 116.348 20.0707C115.829 20.311 115.2 20.4311 114.46 20.4311H111.491V19.3933H114.417C115.186 19.3933 115.767 19.2252 116.161 18.8889C116.565 18.5526 116.766 18.0914 116.766 17.5052C116.766 16.9287 116.569 16.4771 116.175 16.1504C115.781 15.8237 115.195 15.6604 114.417 15.6604H111.808V25H110.626ZM116.709 25L111.188 19.8546H112.803L118.496 25H116.709ZM122.286 25.1441C121.585 25.1441 120.965 24.9808 120.427 24.6541C119.889 24.3178 119.466 23.8614 119.159 23.2849C118.851 22.7083 118.697 22.0453 118.697 21.2959C118.697 20.5464 118.846 19.8882 119.144 19.3213C119.452 18.7447 119.879 18.2979 120.427 17.9809C120.975 17.6638 121.604 17.5052 122.315 17.5052C122.997 17.5052 123.588 17.6542 124.088 17.952C124.597 18.2499 124.986 18.6679 125.255 19.206C125.534 19.7441 125.673 20.3782 125.673 21.1085C125.673 21.2046 125.668 21.2959 125.659 21.3823C125.659 21.4688 125.649 21.5649 125.63 21.6706H119.562V20.7049H124.924L124.549 21.2382C124.549 20.3542 124.352 19.6768 123.958 19.206C123.574 18.7255 123.026 18.4853 122.315 18.4853C121.585 18.4853 120.994 18.7399 120.542 19.2492C120.1 19.7489 119.879 20.4263 119.879 21.2814C119.879 22.1558 120.1 22.8573 120.542 23.3857C120.994 23.9046 121.594 24.164 122.344 24.164C122.815 24.164 123.228 24.0632 123.583 23.8614C123.939 23.65 124.198 23.3521 124.362 22.9678H125.457C125.217 23.6404 124.813 24.1737 124.246 24.5676C123.689 24.952 123.036 25.1441 122.286 25.1441ZM129.1 25L126.059 17.6494H127.298L129.835 24.2217H129.374L131.896 17.6494H133.078L130.037 25H129.1ZM134.11 25V17.6494H135.263V25H134.11ZM134.023 15.9774V14.6226H135.349V15.9774H134.023ZM140.268 25.1441C139.567 25.1441 138.947 24.9808 138.409 24.6541C137.871 24.3178 137.448 23.8614 137.14 23.2849C136.833 22.7083 136.679 22.0453 136.679 21.2959C136.679 20.5464 136.828 19.8882 137.126 19.3213C137.434 18.7447 137.861 18.2979 138.409 17.9809C138.957 17.6638 139.586 17.5052 140.297 17.5052C140.979 17.5052 141.57 17.6542 142.07 17.952C142.579 18.2499 142.968 18.6679 143.237 19.206C143.516 19.7441 143.655 20.3782 143.655 21.1085C143.655 21.2046 143.65 21.2959 143.641 21.3823C143.641 21.4688 143.631 21.5649 143.612 21.6706H137.544V20.7049H142.906L142.531 21.2382C142.531 20.3542 142.334 19.6768 141.94 19.206C141.556 18.7255 141.008 18.4853 140.297 18.4853C139.567 18.4853 138.976 18.7399 138.524 19.2492C138.082 19.7489 137.861 20.4263 137.861 21.2814C137.861 22.1558 138.082 22.8573 138.524 23.3857C138.976 23.9046 139.576 24.164 140.326 24.164C140.797 24.164 141.21 24.0632 141.565 23.8614C141.921 23.65 142.18 23.3521 142.344 22.9678H143.439C143.199 23.6404 142.795 24.1737 142.228 24.5676C141.671 24.952 141.018 25.1441 140.268 25.1441ZM146.475 25L144.227 17.6494H145.394L147.124 23.9478H146.836L148.911 17.6494H149.848L151.938 23.9478H151.65L153.365 17.6494H154.475L152.226 25H151.289L149.214 18.8456H149.516L147.412 25H146.475ZM158.132 25.1441C157.229 25.1441 156.508 24.9375 155.97 24.5244C155.432 24.1016 155.125 23.5058 155.048 22.7372H156.157C156.225 23.208 156.431 23.5683 156.777 23.8181C157.123 24.068 157.584 24.1929 158.161 24.1929C158.67 24.1929 159.069 24.0968 159.357 23.9046C159.645 23.7124 159.79 23.4386 159.79 23.0831C159.79 22.8332 159.708 22.617 159.545 22.4345C159.381 22.2423 159.054 22.0838 158.564 21.9589L157.383 21.6562C156.71 21.4832 156.206 21.219 155.869 20.8635C155.533 20.4983 155.365 20.0659 155.365 19.5663C155.365 18.9321 155.6 18.4325 156.071 18.0673C156.542 17.6926 157.181 17.5052 157.988 17.5052C158.785 17.5052 159.434 17.6974 159.934 18.0817C160.433 18.4661 160.717 18.9994 160.784 19.6816H159.674C159.607 19.2876 159.424 18.985 159.127 18.7736C158.829 18.5622 158.435 18.4565 157.945 18.4565C157.474 18.4565 157.109 18.5478 156.849 18.7303C156.59 18.9033 156.46 19.1531 156.46 19.4798C156.46 19.7296 156.551 19.9458 156.734 20.1284C156.926 20.311 157.243 20.4647 157.685 20.5896L158.838 20.9067C159.52 21.0893 160.035 21.3679 160.38 21.7427C160.726 22.1174 160.899 22.569 160.899 23.0975C160.899 23.7413 160.654 24.2457 160.164 24.6108C159.674 24.9664 158.997 25.1441 158.132 25.1441Z" fill="#575757"/>
<defs>
<clipPath id="clip0_1_667">
<rect width="17.2956" height="16.5703" fill="white" transform="translate(49.1533 11.7148)"/>
</clipPath>
</defs>
</svg>
