<svg width="245" height="240" viewBox="0 0 245 240" fill="none" xmlns="http://www.w3.org/2000/svg">
<path d="M178.966 31.9775C163.976 14.8755 112.247 -7.08261 65.1644 31.9775" stroke="#D06D41" stroke-width="2.9559"/>
<path d="M183.985 50.5212L193.513 40.4225L190.447 37.5292L191.282 36.6447L198.358 43.3215L197.523 44.2061L194.472 41.3267L184.943 51.4254L183.985 50.5212Z" fill="black"/>
<path d="M190.55 57.259L198.796 50.3429L199.578 51.2747L198.04 52.5642L198.037 52.2761C198.65 52.0614 199.27 52.0534 199.895 52.2521C200.529 52.4612 201.093 52.8608 201.588 53.451L202.031 53.979L201.099 54.7605L200.565 54.1237C200.001 53.4508 199.34 53.1051 198.584 53.0867C197.839 53.0596 197.103 53.35 196.379 53.9578L191.331 58.1908L190.55 57.259Z" fill="black"/>
<path d="M197.999 67.5116C197.603 66.8991 197.377 66.2402 197.323 65.5348C197.276 64.8408 197.409 64.1754 197.721 63.5387C198.045 62.8946 198.564 62.3412 199.278 61.8786L205.046 58.1442L205.707 59.165L200.024 62.8443C199.491 63.1895 199.102 63.5947 198.855 64.0599C198.628 64.5291 198.533 65.0169 198.571 65.5235C198.617 66.0413 198.794 66.5384 199.102 67.0148C199.44 67.5366 199.849 67.9075 200.33 68.1276C200.818 68.3591 201.338 68.441 201.89 68.3734C202.453 68.2985 203.007 68.0848 203.551 67.7323L208.979 64.2183L209.64 65.2391L200.605 71.0885L199.944 70.0677L201.782 68.878L201.862 69.1883C201.14 69.366 200.428 69.3115 199.728 69.0247C199.038 68.7306 198.462 68.2262 197.999 67.5116Z" fill="black"/>
<path d="M204.42 79.0973C204 78.1898 203.858 77.2877 203.994 76.391C204.13 75.4943 204.516 74.7049 205.154 74.0229L206.038 74.7752C205.579 75.3598 205.291 75.992 205.173 76.6716C205.068 77.3455 205.16 77.9952 205.45 78.6207C205.745 79.2584 206.145 79.7209 206.65 80.0083C207.173 80.3023 207.692 80.3301 208.207 80.0918C208.526 79.9442 208.756 79.7336 208.898 79.4597C209.045 79.1982 209.126 78.9074 209.142 78.5875C209.17 78.2618 209.152 77.9349 209.09 77.6065L208.815 75.9023C208.656 74.9483 208.71 74.164 208.977 73.5493C209.249 72.9469 209.692 72.5039 210.305 72.2202C210.857 71.9649 211.4 71.8846 211.936 71.9794C212.483 72.0686 212.978 72.3012 213.42 72.6774C213.874 73.0478 214.235 73.5213 214.501 74.0977C214.876 74.9071 215.008 75.7393 214.897 76.5945C214.787 77.4497 214.438 78.1767 213.852 78.7756L212.932 77.995C213.365 77.4821 213.627 76.9218 213.718 76.3139C213.821 75.7003 213.742 75.1115 213.481 74.5474C213.209 73.9587 212.828 73.5542 212.339 73.3338C211.862 73.1078 211.385 73.1054 210.906 73.3267C210.6 73.4685 210.376 73.6613 210.236 73.9049C210.108 74.1428 210.03 74.4095 210.003 74.7049C209.994 75.007 210.012 75.3038 210.058 75.5953L210.337 77.4538C210.485 78.3531 210.419 79.128 210.139 79.7785C209.865 80.4413 209.403 80.9231 208.753 81.2238C208.226 81.4678 207.686 81.5391 207.133 81.4377C206.58 81.3362 206.061 81.0847 205.578 80.6832C205.106 80.2759 204.72 79.7473 204.42 79.0973Z" fill="black"/>
<path d="M209.004 90.7525C208.73 89.9038 208.756 89.1712 209.083 88.5547C209.422 87.934 210.054 87.4742 210.98 87.1753L217.403 85.1015L216.78 83.1726L217.88 82.8177L218.117 83.5506C218.241 83.9364 218.452 84.1948 218.75 84.3258C219.048 84.4568 219.396 84.458 219.795 84.3293L220.894 83.9743L221.268 85.1317L218.876 85.9039L219.599 88.1414L218.499 88.4963L217.777 86.2588L211.354 88.3326C211.071 88.4239 210.807 88.5518 210.562 88.7161C210.321 88.8933 210.156 89.131 210.068 89.4293C209.979 89.7276 210.01 90.1082 210.16 90.5712C210.193 90.674 210.239 90.7941 210.297 90.9314C210.36 91.0816 210.412 91.1996 210.454 91.2855L209.412 91.6217C209.328 91.4927 209.251 91.3403 209.18 91.1644C209.096 90.9927 209.037 90.8554 209.004 90.7525Z" fill="black"/>
<path d="M211.371 101.177C211.189 100.18 211.265 99.2387 211.599 98.354C211.945 97.4668 212.495 96.7143 213.248 96.0966C214.014 95.4764 214.922 95.0708 215.973 94.8797C217.023 94.6885 218.001 94.7439 218.908 95.0459C219.827 95.3455 220.597 95.8373 221.216 96.5212C221.835 97.2052 222.231 98.0258 222.405 98.983C222.539 99.7142 222.525 100.396 222.366 101.03C222.209 101.676 221.93 102.256 221.529 102.769C221.143 103.292 220.665 103.722 220.095 104.06C219.54 104.408 218.931 104.642 218.266 104.763C218.133 104.787 217.992 104.806 217.843 104.82C217.695 104.833 217.538 104.841 217.374 104.843L215.701 95.6502L216.798 95.4506L218.347 103.966L217.83 103.503C218.616 103.443 219.287 103.204 219.843 102.787C220.412 102.367 220.824 101.839 221.079 101.202C221.349 100.576 221.419 99.9041 221.289 99.1862C221.158 98.4683 220.846 97.8453 220.351 97.3173C219.87 96.7868 219.266 96.4092 218.538 96.1845C217.824 95.9574 217.037 95.9358 216.178 96.1197C215.309 96.2503 214.574 96.5556 213.975 97.0356C213.376 97.5155 212.94 98.1029 212.668 98.7979C212.41 99.4905 212.349 100.216 212.487 100.973C212.628 101.745 212.929 102.383 213.392 102.89C213.869 103.393 214.445 103.769 215.122 104.017L214.769 105.132C214.233 104.982 213.726 104.724 213.248 104.358C212.782 103.99 212.383 103.533 212.051 102.99C211.721 102.459 211.494 101.855 211.371 101.177Z" fill="black"/>
<path d="M212.768 115.217C212.752 114.218 212.98 113.308 213.453 112.49C213.94 111.684 214.606 111.045 215.449 110.572C216.293 110.098 217.248 109.853 218.316 109.836C219.383 109.818 220.346 110.032 221.205 110.478C222.064 110.923 222.743 111.54 223.242 112.329C223.742 113.132 224 114.033 224.016 115.033C224.032 116.019 223.81 116.902 223.35 117.679C222.903 118.457 222.291 119.048 221.514 119.453L221.126 119.257L228.422 119.137L228.441 120.353L213.1 120.604L213.08 119.388L215.816 119.343L215.535 119.551C214.692 119.186 214.02 118.616 213.521 117.84C213.035 117.078 212.785 116.204 212.768 115.217ZM213.985 115.238C213.998 116.022 214.198 116.714 214.587 117.316C214.989 117.931 215.524 118.416 216.192 118.77C216.873 119.123 217.633 119.293 218.47 119.28C219.308 119.266 220.055 119.071 220.711 118.696C221.367 118.32 221.879 117.818 222.247 117.191C222.629 116.576 222.814 115.877 222.801 115.094C222.788 114.324 222.581 113.638 222.179 113.036C221.791 112.434 221.263 111.963 220.595 111.623C219.927 111.282 219.175 111.119 218.337 111.133C217.499 111.146 216.746 111.334 216.076 111.697C215.42 112.059 214.9 112.547 214.519 113.162C214.15 113.776 213.972 114.468 213.985 115.238Z" fill="black"/>
<path d="M212.032 131.36L226.807 134.475L225.762 139.434C225.564 140.372 225.205 141.16 224.684 141.796C224.163 142.432 223.524 142.877 222.766 143.131C222.005 143.399 221.182 143.439 220.296 143.253C219.238 143.03 218.394 142.548 217.763 141.807C217.142 141.082 216.795 140.208 216.721 139.184L209.916 141.395L210.238 139.868L217.477 137.562L216.636 138.504L217.611 133.883L211.76 132.649L212.032 131.36ZM218.801 134.134L218.019 137.842C217.877 138.517 217.883 139.14 218.039 139.711C218.208 140.285 218.506 140.769 218.934 141.163C219.375 141.56 219.927 141.828 220.588 141.968C221.249 142.107 221.848 142.081 222.385 141.891C222.936 141.703 223.398 141.379 223.771 140.919C224.157 140.462 224.421 139.897 224.564 139.222L225.346 135.514L218.801 134.134Z" fill="black"/>
<path d="M206.652 149.931C207.016 148.985 207.57 148.221 208.315 147.638C209.073 147.061 209.934 146.704 210.898 146.568C211.875 146.437 212.862 146.563 213.858 146.946C214.855 147.329 215.661 147.885 216.279 148.615C216.908 149.349 217.31 150.169 217.483 151.075C217.655 151.981 217.567 152.888 217.218 153.797C216.952 154.49 216.585 155.066 216.12 155.524C215.649 155.995 215.11 156.345 214.5 156.574C213.899 156.82 213.267 156.939 212.604 156.931C211.949 156.94 211.307 156.823 210.676 156.58C210.55 156.532 210.42 156.475 210.286 156.409C210.152 156.343 210.014 156.268 209.873 156.185L213.225 147.463L214.266 147.863L211.161 155.941L210.96 155.278C211.662 155.635 212.359 155.78 213.051 155.713C213.755 155.65 214.382 155.413 214.931 155.002C215.488 154.608 215.897 154.07 216.159 153.389C216.421 152.708 216.478 152.014 216.33 151.305C216.195 150.602 215.875 149.965 215.371 149.395C214.879 148.829 214.218 148.402 213.388 148.112C212.578 147.771 211.792 147.65 211.031 147.748C210.269 147.847 209.592 148.122 208.998 148.574C208.417 149.031 207.988 149.619 207.712 150.338C207.431 151.07 207.356 151.772 207.488 152.445C207.633 153.123 207.93 153.744 208.379 154.308L207.498 155.076C207.118 154.67 206.819 154.186 206.601 153.624C206.395 153.067 206.292 152.47 206.29 151.833C206.285 151.208 206.405 150.574 206.652 149.931Z" fill="black"/>
<path d="M201.399 161.154C201.734 160.568 202.144 160.109 202.628 159.779C203.113 159.449 203.632 159.263 204.185 159.222C204.738 159.18 205.273 159.306 205.789 159.602C206.246 159.863 206.617 160.208 206.902 160.635C207.187 161.063 207.343 161.58 207.369 162.186C207.408 162.8 207.281 163.498 206.989 164.281L205.46 168.426L204.474 167.862L205.896 164.029C206.223 163.157 206.304 162.457 206.14 161.927C205.976 161.397 205.659 160.999 205.19 160.73C204.686 160.442 204.168 160.395 203.636 160.589C203.098 160.795 202.662 161.191 202.326 161.778C201.937 162.458 201.751 163.138 201.768 163.817C201.796 164.502 201.982 165.13 202.325 165.7C202.68 166.276 203.163 166.739 203.773 167.088L206.096 168.416C206.717 168.771 207.349 168.837 207.991 168.613C208.633 168.388 209.159 167.918 209.568 167.203C209.903 166.616 210.058 166.004 210.033 165.367C210.008 164.731 209.832 164.155 209.503 163.64L210.557 162.982C210.832 163.372 211.024 163.84 211.132 164.385C211.241 164.929 211.252 165.496 211.165 166.084C211.077 166.672 210.879 167.236 210.571 167.776C210.182 168.456 209.705 168.978 209.14 169.339C208.58 169.72 207.982 169.922 207.345 169.947C206.72 169.979 206.102 169.82 205.492 169.472L199.034 165.779L199.638 164.724L201.591 165.84L201.433 165.913C201.145 165.546 200.943 165.096 200.827 164.563C200.723 164.037 200.709 163.476 200.785 162.881C200.865 162.305 201.07 161.729 201.399 161.154Z" fill="black"/>
<path d="M195.993 170.135L208.398 179.165L207.683 180.148L195.278 171.118L195.993 170.135Z" fill="black"/>
<path d="M188.517 179.402L199.017 190.254L192.171 196.878L191.325 196.004L197.225 190.296L193.264 186.203L187.656 191.629L186.81 190.755L192.419 185.329L188.416 181.192L182.516 186.9L181.671 186.026L188.517 179.402Z" fill="black"/>
<path d="M175.009 190.79C175.82 190.207 176.68 189.897 177.586 189.861C178.492 189.826 179.34 190.056 180.13 190.554L179.558 191.564C178.898 191.223 178.222 191.06 177.533 191.073C176.851 191.097 176.231 191.31 175.671 191.712C175.1 192.122 174.722 192.602 174.535 193.153C174.345 193.722 174.416 194.237 174.747 194.698C174.952 194.983 175.202 195.169 175.498 195.256C175.782 195.351 176.083 195.376 176.4 195.331C176.725 195.297 177.043 195.219 177.354 195.095L178.976 194.504C179.883 194.168 180.663 194.073 181.317 194.219C181.96 194.372 182.478 194.723 182.873 195.272C183.228 195.766 183.409 196.284 183.417 196.828C183.433 197.382 183.298 197.912 183.012 198.417C182.734 198.933 182.337 199.377 181.821 199.747C181.097 200.268 180.304 200.554 179.444 200.607C178.583 200.66 177.803 200.455 177.105 199.992L177.698 198.942C178.283 199.27 178.883 199.421 179.497 199.396C180.119 199.382 180.682 199.193 181.187 198.83C181.714 198.452 182.039 198.001 182.163 197.48C182.295 196.969 182.207 196.499 181.9 196.071C181.703 195.797 181.471 195.614 181.205 195.522C180.947 195.441 180.671 195.415 180.376 195.444C180.077 195.492 179.789 195.566 179.512 195.666L177.739 196.291C176.884 196.606 176.111 196.688 175.419 196.536C174.716 196.392 174.156 196.029 173.738 195.448C173.399 194.976 173.227 194.459 173.222 193.896C173.217 193.334 173.367 192.777 173.67 192.227C173.981 191.687 174.427 191.208 175.009 190.79Z" fill="black"/>
<path d="M164.428 197.492C165.209 197.063 165.934 196.95 166.601 197.154C167.274 197.37 167.845 197.905 168.314 198.757L171.562 204.674L173.339 203.698L173.895 204.711L173.22 205.082C172.865 205.277 172.651 205.533 172.578 205.85C172.506 206.167 172.57 206.51 172.772 206.877L173.328 207.89L172.262 208.475L171.052 206.272L168.991 207.403L168.435 206.391L170.496 205.259L167.248 199.343C167.105 199.082 166.929 198.847 166.722 198.637C166.502 198.434 166.238 198.317 165.928 198.287C165.618 198.257 165.25 198.358 164.824 198.593C164.729 198.645 164.62 198.712 164.496 198.796C164.36 198.886 164.254 198.959 164.178 199.017L163.651 198.057C163.762 197.95 163.897 197.845 164.056 197.742C164.209 197.627 164.333 197.544 164.428 197.492Z" fill="black"/>
<path d="M156.341 201.117C156.97 200.87 157.576 200.77 158.161 200.816C158.745 200.862 159.266 201.043 159.723 201.357C160.18 201.67 160.518 202.104 160.735 202.658C160.928 203.148 161.001 203.649 160.955 204.161C160.91 204.672 160.707 205.173 160.348 205.663C159.993 206.165 159.457 206.629 158.74 207.057L154.95 209.329L154.535 208.273L158.045 206.175C158.846 205.701 159.348 205.206 159.552 204.69C159.756 204.175 159.759 203.665 159.561 203.162C159.349 202.621 158.975 202.26 158.439 202.079C157.89 201.902 157.302 201.938 156.673 202.185C155.943 202.471 155.373 202.884 154.96 203.424C154.553 203.976 154.305 204.582 154.215 205.241C154.131 205.913 154.217 206.576 154.474 207.23L155.452 209.72C155.714 210.387 156.166 210.834 156.807 211.061C157.448 211.288 158.152 211.251 158.919 210.95C159.548 210.703 160.052 210.323 160.432 209.811C160.811 209.299 161.034 208.739 161.1 208.133L162.334 208.279C162.304 208.756 162.16 209.241 161.904 209.733C161.647 210.226 161.301 210.674 160.864 211.078C160.428 211.482 159.92 211.798 159.341 212.025C158.612 212.312 157.914 212.419 157.247 212.347C156.572 212.293 155.979 212.076 155.467 211.696C154.959 211.329 154.577 210.819 154.32 210.165L151.6 203.241L152.732 202.797L153.555 204.891L153.386 204.848C153.391 204.382 153.516 203.904 153.76 203.416C154.008 202.941 154.349 202.495 154.78 202.079C155.204 201.68 155.724 201.36 156.341 201.117Z" fill="black"/>
<path d="M142.742 205.579C143.607 205.361 144.336 205.436 144.93 205.802C145.527 206.181 145.944 206.842 146.182 207.786L147.829 214.331L149.795 213.836L150.077 214.957L149.33 215.145C148.937 215.244 148.665 215.438 148.515 215.726C148.365 216.015 148.341 216.362 148.443 216.769L148.725 217.889L147.545 218.186L146.932 215.748L144.652 216.322L144.37 215.202L146.65 214.628L145.002 208.083C144.93 207.794 144.82 207.523 144.672 207.267C144.511 207.015 144.284 206.835 143.992 206.728C143.701 206.62 143.319 206.625 142.847 206.744C142.742 206.77 142.619 206.808 142.478 206.858C142.325 206.91 142.203 206.955 142.115 206.991L141.848 205.93C141.982 205.854 142.139 205.787 142.319 205.727C142.496 205.655 142.637 205.606 142.742 205.579Z" fill="black"/>
<path d="M132.185 207.257C133.192 207.141 134.126 207.279 134.987 207.669C135.85 208.074 136.564 208.672 137.131 209.463C137.7 210.269 138.045 211.202 138.167 212.262C138.288 213.323 138.169 214.295 137.808 215.18C137.449 216.078 136.908 216.814 136.184 217.386C135.461 217.959 134.616 218.301 133.65 218.412C132.912 218.497 132.232 218.439 131.61 218.238C130.975 218.039 130.415 217.722 129.93 217.288C129.433 216.869 129.035 216.364 128.736 215.773C128.425 215.197 128.231 214.573 128.154 213.902C128.138 213.767 128.129 213.626 128.125 213.476C128.122 213.327 128.124 213.17 128.133 213.006L137.416 211.94L137.543 213.048L128.944 214.035L129.44 213.55C129.448 214.338 129.643 215.023 130.022 215.605C130.404 216.2 130.904 216.646 131.523 216.942C132.13 217.253 132.795 217.367 133.52 217.284C134.245 217.201 134.887 216.93 135.447 216.471C136.008 216.026 136.424 215.448 136.696 214.736C136.97 214.039 137.043 213.255 136.916 212.385C136.843 211.51 136.586 210.757 136.147 210.127C135.707 209.498 135.149 209.025 134.474 208.708C133.8 208.404 133.08 208.296 132.315 208.384C131.536 208.474 130.879 208.733 130.343 209.162C129.809 209.604 129.397 210.154 129.105 210.814L128.016 210.388C128.2 209.863 128.491 209.374 128.888 208.921C129.286 208.481 129.767 208.112 130.332 207.816C130.883 207.522 131.501 207.335 132.185 207.257Z" fill="black"/>
<path d="M117.362 208.045L115.842 223.068L106.364 222.109L106.486 220.899L114.653 221.726L115.227 216.059L107.463 215.273L107.585 214.063L115.349 214.849L115.929 209.122L107.762 208.295L107.884 207.085L117.362 208.045Z" fill="black"/>
<path d="M104.699 206.503L99.7167 210.818L102.075 216.942L100.6 216.574L98.4386 210.917L99.3236 211.138L94.7789 215.122L93.3038 214.755L98.2614 210.455L95.9077 204.311L97.3827 204.679L99.5198 210.351L98.6348 210.13L103.224 206.136L104.699 206.503Z" fill="black"/>
<path d="M93.6014 199.365L87.9059 213.043L86.7832 212.576L87.8273 210.068L87.8664 210.502C87.1909 211.07 86.4155 211.42 85.5403 211.553C84.6475 211.694 83.7458 211.575 82.8351 211.195C81.8995 210.806 81.1572 210.233 80.6082 209.478C80.0592 208.722 79.7363 207.863 79.6394 206.901C79.5425 205.938 79.7018 204.958 80.1173 203.96C80.5225 202.987 81.1007 202.196 81.8521 201.587C82.6035 200.977 83.4432 200.595 84.3714 200.44C85.2944 200.297 86.2237 200.421 87.1593 200.81C88.0699 201.19 88.7961 201.748 89.3378 202.486C89.8619 203.231 90.1375 204.063 90.1648 204.982L89.8686 205.166L92.4787 198.898L93.6014 199.365ZM86.7292 201.949C86.0182 201.653 85.3093 201.562 84.6025 201.678C83.8905 201.806 83.2451 202.108 82.6662 202.584C82.0822 203.073 81.6291 203.704 81.3071 204.477C80.9851 205.251 80.8589 206.011 80.9288 206.757C80.9986 207.503 81.2415 208.168 81.6574 208.751C82.0681 209.346 82.629 209.792 83.34 210.088C84.0511 210.384 84.7688 210.471 85.4933 210.348C86.2125 210.238 86.8678 209.947 87.4592 209.476C88.0505 209.005 88.5072 208.383 88.8292 207.609C89.1513 206.836 89.2737 206.067 89.1966 205.303C89.1143 204.552 88.8678 203.878 88.4571 203.283C88.0287 202.695 87.4528 202.25 86.7292 201.949Z" fill="black"/>
<path d="M73.8533 193.909C74.7129 194.446 75.3577 195.135 75.7878 195.977C76.2107 196.831 76.3972 197.744 76.3475 198.717C76.2906 199.701 75.9794 200.645 75.414 201.551C74.8486 202.456 74.1492 203.143 73.3157 203.61C72.4751 204.089 71.5936 204.327 70.6712 204.324C69.7488 204.322 68.8749 204.063 68.0497 203.548C67.4193 203.154 66.9235 202.685 66.5624 202.141C66.1897 201.59 65.9489 200.993 65.8397 200.351C65.712 199.714 65.7153 199.071 65.8497 198.422C65.9655 197.778 66.2023 197.169 66.5601 196.596C66.6317 196.481 66.7126 196.364 66.8028 196.245C66.893 196.126 66.9925 196.005 67.1013 195.882L75.027 200.831L74.4365 201.777L67.0954 197.193L67.785 197.121C67.3011 197.743 67.0264 198.4 66.9608 199.092C66.888 199.795 67.0014 200.456 67.301 201.073C67.582 201.694 68.032 202.198 68.6509 202.585C69.2698 202.971 69.9409 203.159 70.6643 203.149C71.3804 203.15 72.0665 202.957 72.7223 202.57C73.371 202.195 73.9165 201.627 74.3588 200.868C74.8469 200.137 75.1152 199.389 75.1636 198.623C75.212 197.856 75.0706 197.139 74.7395 196.47C74.4012 195.813 73.9054 195.28 73.2521 194.872C72.5873 194.457 71.9119 194.25 71.2258 194.252C70.5325 194.265 69.8666 194.439 69.2279 194.773L68.6409 193.761C69.1121 193.466 69.6441 193.264 70.237 193.156C70.8228 193.06 71.4287 193.072 72.0547 193.192C72.6692 193.305 73.2687 193.544 73.8533 193.909Z" fill="black"/>
<path d="M65.9966 188.703L59.1791 197.031L58.238 196.261L59.5091 194.708L59.5661 194.991C59.0032 195.316 58.3961 195.439 57.7448 195.36C57.0831 195.272 56.4543 194.984 55.8583 194.496L55.325 194.06L56.0954 193.119L56.7384 193.645C57.4181 194.202 58.1311 194.419 58.8774 194.296C59.6153 194.184 60.2837 193.762 60.8829 193.03L65.0556 187.933L65.9966 188.703Z" fill="black"/>
<path d="M56.5565 179.984C57.1848 180.617 57.4929 181.282 57.4807 181.979C57.459 182.686 57.1029 183.383 56.4124 184.068L51.622 188.823L53.05 190.262L52.23 191.075L51.6874 190.529C51.4018 190.241 51.0965 190.106 50.7716 190.124C50.4467 190.142 50.1355 190.299 49.8382 190.594L49.0183 191.408L48.1615 190.544L49.9453 188.774L48.2889 187.105L49.1089 186.291L50.7653 187.96L55.5556 183.205C55.7666 182.995 55.9442 182.762 56.0885 182.505C56.2233 182.238 56.2626 181.951 56.2064 181.645C56.1502 181.339 55.9507 181.014 55.608 180.668C55.5319 180.592 55.4366 180.505 55.3223 180.409C55.1985 180.304 55.0985 180.222 55.0223 180.164L55.7991 179.393C55.9325 179.47 56.0707 179.571 56.2136 179.696C56.366 179.811 56.4803 179.907 56.5565 179.984Z" fill="black"/>
<path d="M50.495 172.758C51.1086 173.547 51.4502 174.394 51.5197 175.299C51.5893 176.203 51.3904 177.059 50.9232 177.867L49.8923 177.333C50.2078 176.66 50.3462 175.98 50.3073 175.291C50.2578 174.611 50.0217 173.999 49.5988 173.454C49.1676 172.9 48.6736 172.539 48.1166 172.373C47.5407 172.204 47.0287 172.294 46.5806 172.643C46.3031 172.858 46.1265 173.115 46.0505 173.414C45.9662 173.702 45.9525 174.003 46.0092 174.319C46.0553 174.642 46.1459 174.957 46.2808 175.263L46.9326 176.861C47.302 177.755 47.4261 178.531 47.305 179.19C47.1755 179.838 46.8441 180.37 46.3106 180.784C45.8305 181.157 45.319 181.358 44.7762 181.386C44.2227 181.423 43.6883 181.308 43.1728 181.041C42.6467 180.782 42.1888 180.402 41.7991 179.901C41.2519 179.197 40.9358 178.415 40.8508 177.557C40.7658 176.699 40.9415 175.912 41.3779 175.197L42.4497 175.75C42.1437 176.347 42.0148 176.952 42.0632 177.565C42.1008 178.186 42.3104 178.742 42.6918 179.233C43.0898 179.745 43.5519 180.053 44.078 180.158C44.5935 180.27 45.0593 180.165 45.4755 179.842C45.7422 179.635 45.9165 179.396 45.9984 179.127C46.0696 178.867 46.0851 178.589 46.0449 178.295C45.9858 177.999 45.9012 177.714 45.7911 177.44L45.1003 175.692C44.7534 174.85 44.6429 174.08 44.7688 173.383C44.8864 172.676 45.2279 172.102 45.7934 171.663C46.2522 171.306 46.7625 171.115 47.3243 171.089C47.886 171.063 48.4477 171.191 49.0094 171.474C49.5604 171.764 50.0556 172.192 50.495 172.758Z" fill="black"/>
<path d="M40.5217 156.704C40.9428 157.566 41.1585 158.423 41.1688 159.275C41.1731 160.116 41.0208 160.897 40.712 161.619C40.3972 162.329 39.9776 162.933 39.4533 163.429L38.5548 162.56C39.3115 161.769 39.7696 160.921 39.9291 160.016C40.0826 159.099 39.931 158.173 39.4743 157.238C39.1718 156.619 38.8047 156.129 38.3729 155.769C37.9352 155.396 37.4629 155.168 36.9561 155.085C36.4492 155.001 35.9408 155.084 35.4308 155.333C34.7266 155.677 34.2781 156.145 34.0853 156.735C33.8866 157.313 33.8564 157.96 33.9949 158.674L34.4763 161.507C34.6772 162.657 34.5745 163.632 34.1682 164.432C33.7439 165.226 33.1189 165.824 32.2933 166.228C31.5769 166.578 30.8686 166.713 30.1683 166.634C29.4499 166.549 28.7937 166.283 28.1995 165.836C27.6054 165.39 27.1244 164.79 26.7567 164.037C26.3712 163.248 26.179 162.47 26.18 161.702C26.163 160.928 26.2935 160.211 26.5716 159.548C26.8316 158.88 27.2085 158.312 27.7024 157.845L28.5919 158.697C27.9024 159.41 27.4994 160.185 27.3829 161.024C27.2542 161.869 27.3885 162.698 27.7859 163.512C28.0469 164.046 28.3843 164.475 28.7983 164.799C29.2123 165.124 29.6668 165.315 30.1618 165.374C30.6568 165.433 31.1593 165.338 31.6693 165.089C32.2885 164.786 32.7306 164.352 32.9957 163.787C33.2608 163.221 33.3192 162.463 33.1709 161.513L32.7411 158.971C32.5581 157.857 32.6425 156.891 32.9946 156.072C33.3286 155.248 33.9326 154.622 34.8068 154.195C35.5232 153.845 36.2435 153.718 36.9678 153.816C37.68 153.919 38.354 154.221 38.99 154.723C39.6078 155.218 40.1184 155.878 40.5217 156.704Z" fill="black"/>
<path d="M36.547 147.88L26.3924 151.448L25.9894 150.3L36.1439 146.733L36.547 147.88ZM24.4036 152.146L22.3 152.885L21.897 151.738L24.0005 150.999L24.4036 152.146Z" fill="black"/>
<path d="M34.5037 141.811L24.0193 144.244L23.7444 143.059L25.8571 142.569L25.8468 142.883C25.0942 142.808 24.4436 142.515 23.8951 142.005C23.3435 141.481 22.9731 140.811 22.7837 139.994C22.6157 139.271 22.6276 138.574 22.8192 137.905C23.0109 137.237 23.3616 136.656 23.8715 136.163C24.3682 135.673 24.9918 135.342 25.742 135.167L32.5934 133.578L32.8683 134.763L26.3526 136.274C25.7207 136.421 25.2101 136.671 24.8205 137.025C24.4179 137.382 24.15 137.812 24.0169 138.314C23.8675 138.807 23.8585 139.336 23.9899 139.902C24.1273 140.494 24.3861 140.982 24.7664 141.366C25.1467 141.749 25.6078 142.003 26.1498 142.127C26.6918 142.25 27.2787 142.239 27.9105 142.093L34.2288 140.627L34.5037 141.811Z" fill="black"/>
<path d="M31.6774 123.725C31.7572 124.749 31.5861 125.684 31.1641 126.53C30.7276 127.364 30.1034 128.05 29.2914 128.587C28.4784 129.111 27.5397 129.415 26.4754 129.498C25.3977 129.582 24.4233 129.427 23.5524 129.034C22.6669 128.629 21.9507 128.048 21.4038 127.291C20.8558 126.52 20.5419 125.623 20.4621 124.599C20.4096 123.926 20.4758 123.297 20.6608 122.713C20.8446 122.116 21.1146 121.58 21.4706 121.105C21.8267 120.63 22.2517 120.258 22.7458 119.989L23.3951 121.016C22.8006 121.388 22.344 121.877 22.0254 122.485C21.7068 123.093 21.5764 123.767 21.6342 124.508C21.694 125.276 21.9367 125.955 22.3622 126.545C22.7866 127.122 23.3498 127.566 24.0518 127.877C24.7403 128.19 25.5156 128.312 26.3778 128.245C27.24 128.178 27.9937 127.936 28.639 127.52C29.2707 127.105 29.7516 126.579 30.0816 125.944C30.4105 125.295 30.545 124.586 30.4852 123.818C30.4274 123.077 30.1941 122.431 29.7852 121.88C29.3763 121.329 28.8427 120.917 28.1843 120.643L28.6869 119.526C29.2032 119.716 29.6807 120.018 30.1195 120.431C30.5449 120.845 30.9014 121.333 31.189 121.893C31.4621 122.441 31.6249 123.052 31.6774 123.725Z" fill="black"/>
<path d="M31.7277 109.903C31.6498 110.914 31.3372 111.804 30.7899 112.575C30.2291 113.345 29.5062 113.933 28.621 114.34C27.7225 114.745 26.741 114.906 25.6766 114.824C24.6123 114.742 23.6801 114.44 22.8801 113.918C22.0666 113.394 21.4475 112.723 21.0227 111.904C20.5978 111.085 20.4228 110.191 20.4976 109.221C20.5547 108.48 20.7408 107.823 21.0559 107.251C21.3721 106.666 21.7893 106.176 22.3075 105.782C22.8133 105.374 23.3849 105.079 24.0223 104.898C24.6473 104.702 25.2966 104.63 25.9702 104.682C26.105 104.693 26.2459 104.71 26.3931 104.735C26.5402 104.76 26.6936 104.792 26.8532 104.832L26.1353 114.148L25.0238 114.062L25.6888 105.433L26.0711 106.011C25.2959 105.87 24.5865 105.931 23.9429 106.193C23.2858 106.454 22.753 106.86 22.3446 107.412C21.9238 107.948 21.6853 108.581 21.6293 109.308C21.5732 110.036 21.7172 110.718 22.0612 111.354C22.3917 111.989 22.8803 112.508 23.5269 112.91C24.1601 113.311 24.9156 113.532 25.7934 113.573C26.667 113.667 27.4547 113.559 28.1564 113.247C28.858 112.935 29.4286 112.477 29.8681 111.874C30.2942 111.27 30.5368 110.584 30.5959 109.816C30.6562 109.035 30.5267 108.34 30.2076 107.733C29.875 107.125 29.4128 106.615 28.8211 106.203L29.4462 105.214C29.926 105.495 30.3508 105.874 30.7208 106.349C31.0772 106.824 31.3471 107.367 31.5305 107.977C31.7149 108.574 31.7806 109.216 31.7277 109.903Z" fill="black"/>
<path d="M33.5689 95.9158L32.7919 95.6841L29.5354 90.2921C28.8943 89.2266 28.3597 88.348 27.9315 87.6562C27.4942 86.9476 27.0616 86.3885 26.6339 85.9789C26.21 85.5564 25.7002 85.2563 25.1046 85.0786C24.1981 84.8082 23.4178 84.8716 22.7635 85.2687C22.1001 85.649 21.6275 86.3117 21.3455 87.257C21.0713 88.1764 21.1069 89.026 21.4525 89.8059C21.798 90.5858 22.4105 91.2268 23.2901 91.7289L22.6958 92.7996C21.9341 92.375 21.334 91.8576 20.8956 91.2473C20.4442 90.6333 20.1662 89.9581 20.0615 89.2218C19.9438 88.4817 20.0028 87.7167 20.2384 86.9268C20.4856 86.098 20.8721 85.4166 21.3981 84.8826C21.9149 84.3317 22.5272 83.9573 23.2348 83.7594C23.9425 83.5616 24.6912 83.5805 25.4811 83.8161C26.0638 83.9899 26.5885 84.2874 27.0551 84.7086C27.5256 85.1168 27.9872 85.6493 28.4399 86.3061C28.8965 86.9499 29.4006 87.7419 29.9522 88.682L32.9927 93.7346L35.1884 86.3731L36.315 86.7091L33.5689 95.9158Z" fill="black"/>
<path d="M40.679 77.2611C40.1616 78.3167 39.4154 79.1022 38.4404 79.6175C37.4593 80.1147 36.3309 80.3291 35.0552 80.2606C33.7855 80.18 32.4591 79.8006 31.0759 79.1226C29.6805 78.4386 28.5682 77.6225 27.7388 76.6742C26.9033 75.7078 26.3876 74.6876 26.1918 73.6134C25.996 72.5393 26.1568 71.4744 26.6742 70.4188C27.1857 69.3753 27.926 68.602 28.895 68.0988C29.864 67.5956 30.9833 67.3843 32.253 67.465C33.5166 67.5275 34.846 67.9008 36.2413 68.5848C37.6367 69.2687 38.7551 70.0878 39.5966 71.0421C40.4259 71.9904 40.9446 73.0046 41.1525 74.0847C41.3483 75.1588 41.1905 76.2177 40.679 77.2611ZM39.5506 76.708C39.961 75.8708 40.0661 75.0269 39.8661 74.1764C39.666 73.3259 39.2094 72.5227 38.4964 71.7669C37.7772 70.993 36.8352 70.3205 35.6704 69.7496C34.4934 69.1727 33.3849 68.8399 32.3448 68.7515C31.2984 68.6449 30.3839 68.776 29.6012 69.1447C28.8064 69.5076 28.2008 70.1136 27.7844 70.963C27.374 71.8002 27.2659 72.6501 27.4601 73.5128C27.648 74.3573 28.1016 75.1666 28.8208 75.9405C29.546 76.7023 30.4909 77.3686 31.6557 77.9396C32.8084 78.5046 33.9079 78.8404 34.9542 78.947C36.0065 79.0414 36.933 78.9012 37.7338 78.5262C38.5346 78.1513 39.1402 77.5452 39.5506 76.708Z" fill="black"/>
<path d="M49.0993 63.3751C48.4019 64.3215 47.5275 64.9613 46.4763 65.2944C45.4222 65.6087 44.2737 65.6183 43.0307 65.3233C41.7957 65.0175 40.5582 64.4076 39.3181 63.4937C38.0672 62.5718 37.1182 61.5704 36.4713 60.4893C35.8216 59.3894 35.4962 58.2935 35.4951 57.2017C35.4941 56.1098 35.8423 55.0907 36.5397 54.1443C37.2291 53.2088 38.0954 52.58 39.1387 52.2577C40.1819 51.9354 41.321 51.9272 42.5559 52.2331C43.788 52.52 45.0296 53.1244 46.2805 54.0463C47.5315 54.9682 48.4858 55.9737 49.1436 57.0628C49.7905 58.1438 50.1199 59.2342 50.1319 60.3341C50.1329 61.426 49.7887 62.4396 49.0993 63.3751ZM48.0877 62.6296C48.6408 61.879 48.8948 61.0675 48.8497 60.1949C48.8045 59.3223 48.4985 58.4506 47.9318 57.5797C47.3622 56.6899 46.5552 55.8602 45.5109 55.0906C44.4558 54.313 43.4244 53.7879 42.4167 53.5153C41.4062 53.2238 40.4829 53.1896 39.647 53.4129C38.8002 53.6281 38.0962 54.1164 37.535 54.8778C36.9819 55.6284 36.7239 56.4454 36.761 57.3289C36.7953 58.1934 37.0973 59.0706 37.6669 59.9604C38.2445 60.8393 39.0555 61.6636 40.0997 62.4332C41.1331 63.1947 42.1551 63.7213 43.1656 64.0128C44.1842 64.2934 45.1209 64.3207 45.9757 64.0946C46.8305 63.8685 47.5345 63.3802 48.0877 62.6296Z" fill="black"/>
<path d="M59.0836 51.9558C58.403 52.6126 57.6592 53.058 56.8522 53.2921C56.0359 53.5165 55.2329 53.5308 54.4432 53.3351C53.6442 53.1298 52.9397 52.711 52.3298 52.079C51.6542 51.3789 51.2531 50.5642 51.1263 49.635C50.9901 48.696 51.1543 47.7958 51.6188 46.9345L51.9014 47.1689C51.1702 47.4425 50.4523 47.5062 49.7478 47.3598C49.0529 47.2041 48.4568 46.8685 47.9595 46.3531C47.4529 45.8281 47.1338 45.2346 47.0022 44.5729C46.8613 43.9014 46.8972 43.2283 47.1099 42.5536C47.3226 41.8789 47.711 41.2695 48.275 40.7253C48.839 40.181 49.4523 39.8145 50.1151 39.6256C50.7876 39.4274 51.452 39.4154 52.1083 39.5895C52.7743 39.7543 53.3653 40.1041 53.8814 40.6389C54.3974 41.1737 54.7115 41.7814 54.8236 42.4619C54.9454 43.133 54.8708 43.8341 54.5997 44.5651L54.3464 44.3026C55.2144 43.8593 56.1151 43.7225 57.0486 43.8921C57.9919 44.0523 58.8013 44.4824 59.4768 45.1825C60.0867 45.8146 60.48 46.5335 60.6568 47.3394C60.8242 48.1356 60.7763 48.9423 60.5133 49.7594C60.2506 50.5575 59.774 51.2896 59.0836 51.9558ZM58.2819 51.0957C58.7973 50.5985 59.1556 50.0649 59.3569 49.4951C59.5585 48.9062 59.5929 48.3191 59.46 47.7338C59.3271 47.1485 59.0214 46.6079 58.5428 46.1119C58.0737 45.6257 57.549 45.3058 56.9688 45.1521C56.3886 44.9984 55.8006 45.0118 55.2049 45.1923C54.6189 45.3634 54.0634 45.7023 53.5383 46.209C53.0229 46.7063 52.6644 47.2494 52.4628 47.8383C52.2709 48.4178 52.2414 49.0002 52.3743 49.5855C52.5169 50.1615 52.8228 50.6925 53.2919 51.1787C53.7705 51.6746 54.295 52.0041 54.8655 52.1672C55.4363 52.3112 56.0147 52.2976 56.6007 52.1265C57.1964 51.946 57.7568 51.6024 58.2819 51.0957ZM52.7366 45.3489C53.1158 44.983 53.3764 44.572 53.5183 44.1158C53.6602 43.6596 53.6827 43.2061 53.5856 42.7552C53.4885 42.3043 53.2617 41.8941 52.9051 41.5246C52.5392 41.1454 52.1374 40.9041 51.6996 40.8007C51.2525 40.6876 50.7984 40.6938 50.3375 40.8194C49.8765 40.945 49.4565 41.1907 49.0772 41.5566C48.698 41.9226 48.4325 42.3383 48.2809 42.8039C48.139 43.2601 48.1117 43.7183 48.199 44.1786C48.2867 44.6197 48.5135 45.0299 48.8795 45.4091C49.236 45.7786 49.6379 46.0199 50.085 46.133C50.5419 46.2368 51.0008 46.2258 51.4617 46.1003C51.9227 45.9747 52.3476 45.7243 52.7366 45.3489Z" fill="black"/>
</svg>
